<svg xmlns="http://www.w3.org/2000/svg" viewBox="0 0 2048 2048" fill="none">
  <g fill="#2D7EF5">
    <path d="M716.7 585c-115.2.5-117.9.5-119.3 2.4-1.2 1.7-1.4 61.7-1.4 428.2 0 418.1 0 426.2 1.9 428.5l1.9 2.4 308.4.3c292.3.2 308.5.1 311.5-1.5 5-2.8 89.4-86.2 90.9-90 1.2-2.7 1.4-66 1.4-384.3V589.9l-2.5-2.4-2.4-2.5h-56.3c-31 0-137.3-.1-236.3-.3-99-.1-233 0-297.8.3m583.1 386.2-.3 373.3-43.3.5c-41.5.5-43.4.6-44.8 2.4-1.2 1.6-1.4 9.3-1.4 44.3v42.3H609.1l-.3-12.3c-.2-6.7-.4-194.8-.6-418l-.3-405.7H1300zm-7.9 386c-.2.2-15.8 15.6-34.7 34.3l-34.2 33.9V1357h34.7c19 0 34.4.1 34.2.2"/>
    <path d="M869.5 624.7c-32.5 4.5-57.8 26.9-66.7 58.8-1.9 6.9-2.2 10.5-2.2 26.5 0 15.8.3 19.6 2.1 26 1.2 4.1 2.4 8.3 2.8 9.2.7 1.7-.5 1.8-16.4 1.8-15.8 0-17.3.2-19.1 2-2.6 2.6-2.6 7.2.1 9.6 1.9 1.7 4.1 1.9 22 2.2l20 .4 3.5 7c7.5 14.8 22.8 38.4 36.2 55.8 18.4 23.8 32.5 39.5 62.6 69.9 24.3 24.5 35.1 34.5 38.5 35.6 3.7 1.1 8.3-2.5 29.9-23.9 52-51.2 88.3-96.3 106.3-131.9l6.3-12.5 17.7-.4c15.7-.3 17.9-.5 19.8-2.2 2.9-2.6 2.8-8-.1-10-1.8-1.3-5.3-1.6-17.1-1.6-13.8 0-14.9-.1-14.2-1.8.3-.9 1.5-5.3 2.6-9.7 5.8-24.1 4-45.2-5.6-65-10.7-22.2-28.4-37.3-51.1-43.6-11.5-3.2-30.5-3.3-42.4-.1-21.4 5.8-36.9 18.3-48.1 38.7l-3.6 6.6-4.7-8.1c-8.7-15.1-23.6-28.2-39-34.4-11.2-4.4-28.3-6.5-40.1-4.9m30.6 15.9c19.6 6.2 33.7 20.7 44.4 45.7 3 7 4.2 8.8 6.3 9.4 5.2 1.3 7.4-.7 11.7-10.2 7.4-16.5 10.7-21.8 18.5-29.5 12.5-12.5 26.7-18.4 44.5-18.4 36.8 0 64.6 27.3 68 67 .8 9.6-.6 20.8-4.3 33.1l-2.7 9.3h-29.7c-27.9 0-29.9.1-31.7 1.9-1 1-3.6 7.1-5.7 13.5s-4.1 11.3-4.4 10.9c-.4-.5-4.4-13.9-9-30-5.1-18.1-9-30-10.2-31.2-2.8-3.1-8-2.8-11 .7-1.3 1.5-5.7 9.8-9.8 18.5l-7.5 15.7h-17.7c-21 0-19.5-1-25.4 15.9-2.1 6.1-3.9 10.9-4.1 10.7-.6-.5-4-12.6-9.9-35-3-11.5-6.2-22.6-7-24.7-1.9-4.6-5.6-6.3-9.9-4.5-2.5 1-4.1 3.8-11.1 19.2l-8.2 17.9-26.5.3-26.5.2-2.1-5.4c-4.6-12.3-5.5-17.7-5.5-32.1-.1-15.7 1.8-24.4 7.5-35.8 15-29.6 47.3-43.1 79-33.1M898 745c7.4 28.2 15.2 54.6 16.7 56.2 1.2 1.4 2.8 1.8 5.7 1.6 5.1-.4 5.6-1.2 13.4-24.3l5.7-17 17.6-.5c11.7-.3 18.1-.9 19.1-1.7.8-.7 3.9-6.7 6.9-13.3s5.7-12 6-12 1.1 2.4 1.8 5.2c3.5 14.1 16.4 57.7 18 60.3 1.8 3.1 5.2 4.2 9.6 3.1 2.6-.7 2.6-.6 9.9-23.9l5.7-17.7h46l-4.8 9.2c-9.7 18.9-30.6 47.7-55.2 76.3-10.6 12.4-64 66.5-65.6 66.5-1.7 0-40.2-37.7-54.7-53.6-29.4-32.3-54.9-65.9-67.7-89.4-2.2-4.1-4.1-7.8-4.1-8.3 0-.4 11.8-.7 26.3-.7 19.5 0 26.7-.3 27.9-1.3 1.5-1.1 9.5-17.9 11.3-23.6 1-3.2 1.6-1.9 4.5 8.9M682.4 966.6c-5.8 2.1-12 7.7-15.2 13.8l-2.7 5.1-.3 34.8c-.3 39.3 0 42.1 6.3 49.5 2 2.3 5.8 5.4 8.3 7l4.7 2.7h73l5.4-3c2.9-1.6 6.8-4.7 8.7-6.9 6.3-7.3 6.6-9.4 6.2-48.8l-.3-35.3-3-5.4c-3.6-6.5-9.8-11.8-16.1-13.7-6.9-2.1-69.1-1.9-75 .2m72.6 13.6c3.3 1.7 5.1 3.5 6.8 6.8 2.2 4.4 2.3 4.9 2 37-.4 45.7 2.9 42.5-43.8 42.5-35.6 0-34.9.1-39.7-6.2l-2.8-3.6-.3-32.1c-.3-33.8 0-37.6 4-41.3 5.5-5.2 6.2-5.3 38.8-5.3 29.7 0 30.7.1 35 2.2"/>
    <path d="M728.5 1014c-8.3 8.2-15.5 15-15.9 15-.5 0-3.5-2.5-6.7-5.5-6.4-6.1-8.8-6.7-12.4-3-4.1 4-3.3 6 6.7 16.1 13.3 13.6 11.6 14 34.5-8.9 16.2-16.1 18.3-18.6 18.3-21.5 0-3.9-3-7.2-6.7-7.2-2.1 0-5.8 3.2-17.8 15m84.6-31.4c-2.7 3.4-2.6 5 .4 7.9l2.4 2.5h425.2l2.4-2.5c3-2.9 3.2-5.8.5-8.5-2-2-3.3-2-215.4-2H815.1zm-.1 78c-2.1 2.5-1.6 7.5 1 9.6 2.2 1.8 9.1 1.8 215.2 1.6l213-.3 1.9-2.4c2.1-2.5 1.9-6.2-.3-8.8-.8-1-44.6-1.3-215.3-1.3-192.5 0-214.4.2-215.5 1.6m-130 65.9c-6 1.9-11.9 7-15.5 13.6l-3 5.4-.3 35.2c-.2 22.7.1 36.6.8 39.2 1.9 7.2 6.9 13.2 13.8 16.8l6.4 3.3h34.2c38.7 0 40.2-.2 48.1-7.2 2.5-2.2 5.6-5.9 6.8-8.2 2.1-4 2.2-5.2 2.5-40 .3-41.9.2-42.5-8.4-51.3-8-8-9.6-8.3-48.3-8.2-24.9 0-33.7.4-37.1 1.4m73.6 14.1c1.5 1.1 3.7 3.3 4.8 4.8 2 2.6 2.1 4 2.1 37.1 0 39 .3 37.8-8.6 42.3-4.3 2.2-4.8 2.3-36.1 2-30.2-.3-31.8-.4-34.4-2.4-1.5-1.1-3.7-3.3-4.8-4.8-2-2.6-2.1-4-2.1-36.9v-34.2l2.3-3.3c1.3-1.8 4-4.1 6-5.2 3.5-1.8 5.6-1.9 35.9-1.7 30.7.2 32.3.3 34.9 2.3"/>
    <path d="m727.4 1176.2-15.5 15.2-5.7-5.7c-6.4-6.4-9-7-12.7-3.2-4.2 4.1-3.3 6.1 6.8 16.2 7.6 7.6 9.9 9.3 12.3 9.3 2.4-.1 6.1-3.1 21.7-18.3 16.7-16.3 18.7-18.6 18.7-21.5 0-4.1-3-7.2-7.1-7.2-2.6 0-5.3 2.3-18.5 15.2m86.1-32.7c-3 2.9-3.2 5.4-.5 8.3l2.1 2.2h164.7c181 0 169.2.4 169.2-5.8 0-3.3-.8-4.5-3.7-6.1-1.6-.8-44.4-1.1-165.8-1.1H815.9zm1.2 76.6c-3.9 2.3-4.1 8.6-.3 11.1.6.4 64.6.8 142.2.8 135.4 0 141.2-.1 142.7-1.8 2.5-2.7 2.2-7.8-.5-9.6-2-1.4-17.1-1.6-142.3-1.6-95.9.1-140.6.4-141.8 1.1m-116.9 63.4c-5.3 3-10.4 15.5-16.2 39.7-3.1 12.9-3.1 12.3-.6 14.8s8.1 2.6 10.2.2c.9-.9 3.2-7.8 5.2-15.3 4-15.6 6.7-23.1 8.1-23.2.6 0 3.2 3.8 5.8 8.4 8.8 15.3 12.7 18.9 20.5 18.9 8.2 0 14.1-4.5 20.4-15.6 1.7-3.1 3.4-5.2 3.8-4.7.3.4 1.9 3.8 3.4 7.5 7 16.8 20.3 24.4 41.5 23.6 12.8-.5 17.8-2.2 33.4-11 9.1-5.1 12.1-6.3 16.6-6.6 5.1-.3 6.2 0 12.3 3.7 3.7 2.3 7.6 4.1 8.7 4.1 2.9 0 6.1-3.5 6.1-6.5 0-6.1-12.1-14.2-22.8-15.2-7.8-.7-15.4 1.5-26.3 7.8-22.6 13-39.7 14-50.9 3-4.1-4-5.2-6-8-14.6-3.9-11.8-5.1-13.9-9-15.5-6.4-2.6-10.7.4-18 12.6-4.7 7.8-9.4 13.4-11.1 13.4-1.4 0-5.5-6.1-11.1-16.4-3-5.5-6.6-10.8-8-11.9-3.4-2.6-10.5-3.2-14-1.2M657 1378c-1.1 1.1-2 3.1-2 4.5s.9 3.4 2 4.5c2 2 3.3 2 124 2s122 0 124-2c2.7-2.7 2.5-6.2-.3-8.8l-2.3-2.2H780.7c-120.4 0-121.7 0-123.7 2"/>
  </g>
</svg>
