<svg xmlns="http://www.w3.org/2000/svg" width="108" height="87" viewBox="0 0 108 87" fill="none">
<path d="M46.4701 15.6451C43.9149 15.5826 41.384 16.1534 39.1031 17.3067C36.8222 18.4601 34.8621 20.16 33.3979 22.2549C31.3034 25.3703 30.2178 29.0546 30.2881 32.808C30.3585 36.5614 31.5815 40.2024 33.7912 43.2371C41.5318 54.8289 56.7344 64.9621 57.39 65.3882C57.7608 65.6369 58.1972 65.7697 58.6437 65.7697C59.0902 65.7697 59.5265 65.6369 59.8973 65.3882C60.5419 64.9621 75.7391 54.8289 83.4961 43.2371C85.7044 40.2017 86.9265 36.5609 86.9968 32.8079C87.0672 29.0549 85.9824 25.3709 83.8894 22.2549C82.4161 20.1679 80.4535 18.474 78.1735 17.3217C75.8936 16.1693 73.3658 15.5937 70.8117 15.6451C68.3767 15.727 65.9979 16.3973 63.8784 17.5988C61.7589 18.8003 59.9618 20.4972 58.6409 22.5444C57.32 20.4972 55.523 18.8003 53.4035 17.5988C51.284 16.3973 48.9051 15.727 46.4701 15.6451Z" fill="#2D7EF5" stroke="#16233A" stroke-width="1.5" stroke-miterlimit="10"/>
<path d="M29.5139 51.0596C29.5139 51.0596 46.257 46.6022 51.5067 46.8043C56.7563 47.0064 64.2784 47.9841 63.9889 52.0538C63.3934 60.2478 50.4142 51.4584 49.4254 56.8063C48.8792 59.7507 53.4077 62.4384 59.7061 61.6682C65.7151 60.9307 72.1173 59.2373 76.9627 59.0844C95.3555 58.5053 70.4075 71.2716 56.1609 71.6485C39.8876 72.1019 26.7389 62.8317 26.7389 62.8317C26.7389 62.8317 22.3687 54.5011 24.7887 53.1628C26.3038 52.3341 27.8842 51.6307 29.5139 51.0596Z" fill="white" stroke="#16233A" stroke-width="1.5" stroke-miterlimit="10"/>
<path d="M28.7986 48.17H22.8661C21.5749 48.17 20.5281 49.2168 20.5281 50.5081V66.3498C20.5281 67.6411 21.5749 68.6879 22.8661 68.6879H28.7986C30.0898 68.6879 31.1366 67.6411 31.1366 66.3498V50.5081C31.1366 49.2168 30.0898 48.17 28.7986 48.17Z" fill="white" stroke="#16233A" stroke-width="1.5" stroke-miterlimit="10" stroke-linecap="round"/>
</svg>
